<svg xmlns="http://www.w3.org/2000/svg" viewBox="0 0 1500 413.12"><defs><style>.cls-1,.cls-2{fill:#f2f2f2;}.cls-1{opacity:0.5;}</style></defs><g id="Laag_2" data-name="Laag 2"><g id="Laag_1-2" data-name="Laag 1"><path class="cls-1" d="M908.56.56C794.63.56,702.28,92.91,702.28,206.84s92.35,206.28,206.28,206.28,206.28-92.34,206.28-206.28S1022.5.56,908.56.56Zm0,355.76a149.48,149.48,0,1,1,0-299l2.33,0h.63c.71,0,1.41,0,2.12.06,1.68.06,3.36.15,5,.27h0l0,0a61.28,61.28,0,0,1,104.15,52.82s0,0,0,0,0,0,0,0a149.88,149.88,0,0,1,25.81,44.13q1.14,3,2.14,6.15,1.5,4.66,2.71,9.45c.27,1.06.53,2.13.77,3.2s.48,2.15.7,3.23.43,2.17.63,3.26.34,2,.5,2.93l.09.53q.24,1.56.45,3.12c.16,1.11.29,2.21.42,3.33s.24,2.23.34,3.35c0,.07,0,.14,0,.21.09,1.05.17,2.1.24,3.16s.14,2.08.18,3.13q0,.36,0,.72.06,1.26.09,2.52c0,.19,0,.37,0,.55,0,1.1,0,2.2,0,3.31A149.49,149.49,0,0,1,908.56,356.32Z"/><path class="cls-2" d="M1058,206.84A149.48,149.48,0,1,1,908.56,57.36l2.33,0h.63c.71,0,1.41,0,2.12.06,1.7,0,3.39.14,5.08.25l0,0a61.29,61.29,0,1,0,104.17,52.84s0,0,0,0a149.18,149.18,0,0,1,25.8,44.15q1.15,3,2.14,6.15,1.52,4.66,2.71,9.45c.27,1.06.53,2.13.77,3.2s.48,2.15.7,3.23.43,2.17.63,3.26.34,2,.5,2.93l.09.53q.24,1.56.45,3.12t.42,3.33c.12,1.11.24,2.23.34,3.35,0,.07,0,.14,0,.21.09,1.05.17,2.1.24,3.16s.13,2.08.18,3.13q0,.36,0,.72.06,1.26.09,2.52c0,.19,0,.37,0,.55C1058,204.63,1058,205.73,1058,206.84Z"/><path class="cls-1" d="M455.29,0C341.36,0,249,92.34,249,206.28s92.35,206.28,206.28,206.28,206.29-92.35,206.29-206.28S569.23,0,455.29,0Zm0,355.76a149.48,149.48,0,0,1,0-299l2.33,0h.63c.71,0,1.41,0,2.12.06,1.68.06,3.35.15,5,.27h0l0,0A61.28,61.28,0,0,1,569.6,110a0,0,0,0,1,0,0h0a150.09,150.09,0,0,1,17.5,25.75q1.14,2.13,2.21,4.29c.36.73.71,1.45,1.06,2.18,1.84,3.88,3.53,7.86,5,11.92q1.14,3,2.14,6.15,1.5,4.66,2.71,9.45c.27,1.06.53,2.13.77,3.2s.48,2.15.7,3.23.43,2.17.63,3.26.34,2,.5,2.93l.09.53q.24,1.56.45,3.12c.16,1.11.29,2.21.42,3.33s.24,2.23.34,3.35c0,.07,0,.14,0,.21.09,1.05.17,2.1.24,3.16s.13,2.08.18,3.13q0,.36,0,.72.06,1.26.09,2.52c0,.19,0,.37,0,.55,0,1.1,0,2.2,0,3.31A149.49,149.49,0,0,1,455.29,355.76Z"/><path class="cls-2" d="M604.77,206.28A149.48,149.48,0,1,1,455.29,56.8l2.33,0h.63c.71,0,1.41,0,2.12.06,1.7,0,3.39.14,5.08.25l0,0A61.29,61.29,0,1,0,569.6,110h0a148.6,148.6,0,0,1,17.49,25.76q1.14,2.13,2.21,4.29c.36.73.71,1.45,1.06,2.18,1.85,3.88,3.54,7.86,5,11.92q1.15,3,2.14,6.15,1.51,4.66,2.71,9.45c.27,1.06.53,2.13.77,3.2s.48,2.15.7,3.23.43,2.17.63,3.26.34,2,.5,2.93l.09.53q.24,1.56.45,3.12t.42,3.33c.12,1.11.24,2.23.34,3.35,0,.07,0,.14,0,.21.09,1.05.17,2.1.24,3.16s.13,2.08.18,3.13q0,.36,0,.72.06,1.26.09,2.52c0,.19,0,.37,0,.55C604.76,204.07,604.77,205.17,604.77,206.28Z"/><path class="cls-2" d="M80.88,347.39h136v61.95H0V4.37H80.88Z"/><path class="cls-2" d="M1328.49,203.41,1500,409.34h-98.09L1252.2,224.06V409.34h-80.89V4.37h80.89V186.21L1402.48,4.37H1500Z"/></g></g></svg>