<?xml version="1.0" standalone="no"?>
<!DOCTYPE svg PUBLIC "-//W3C//DTD SVG 20010904//EN"
 "http://www.w3.org/TR/2001/REC-SVG-20010904/DTD/svg10.dtd">
<svg version="1.0" xmlns="http://www.w3.org/2000/svg"
 width="8334.000000pt" height="8334.000000pt" viewBox="0 0 8334.000000 8334.000000"
 preserveAspectRatio="xMidYMid meet">
<metadata>
Created by potrace 1.11, written by Peter Selinger 2001-2013
</metadata>
<g transform="translate(0.000000,8334.000000) scale(0.100000,-0.100000)"
fill="#000000" stroke="none">
<path d="M40890 83330 c-3522 -70 -6899 -553 -10240 -1466 -3073 -839 -6070
-2045 -8875 -3572 -4225 -2300 -8028 -5320 -11236 -8922 -3223 -3620 -5789
-7767 -7579 -12250 -2253 -5644 -3232 -11688 -2889 -17830 354 -6345 2150
-12500 5262 -18030 2186 -3885 4997 -7414 8297 -10416 5746 -5226 12785 -8728
20380 -10139 3289 -611 6654 -823 10040 -634 6720 375 13225 2368 18990 5819
3304 1977 6312 4395 8956 7200 4590 4867 7943 10765 9759 17165 1240 4369
1756 8924 1530 13510 -362 7326 -2630 14367 -6610 20520 -1949 3013 -4307
5793 -6965 8211 -5745 5226 -12791 8731 -20380 10139 -2135 396 -4250 620
-6465 685 -485 14 -1511 19 -1975 10z m12255 -7861 c2588 -119 5085 -1064
7120 -2694 365 -292 602 -503 953 -850 649 -640 1142 -1235 1637 -1980 1155
-1738 1844 -3714 2019 -5790 33 -386 40 -575 40 -1045 0 -577 -19 -919 -80
-1440 -180 -1536 -665 -3078 -1394 -4425 -1133 -2096 -2816 -3801 -4900 -4964
-226 -126 -752 -388 -995 -495 -2048 -904 -4285 -1233 -6525 -961 -2343 285
-4570 1249 -6394 2769 -1546 1287 -2755 2929 -3522 4780 -469 1132 -770 2349
-883 3571 -41 439 -46 568 -46 1175 1 637 8 806 61 1300 202 1921 849 3757
1897 5385 993 1544 2366 2888 3932 3850 533 328 1160 649 1739 890 1059 440
2225 740 3366 864 664 73 1292 92 1975 60z"/>
</g>
</svg>
